<svg xmlns="http://www.w3.org/2000/svg" xmlns:xlink="http://www.w3.org/1999/xlink" zoomAndPan="magnify" viewBox="594.107 302.011 309.120 182.635" preserveAspectRatio="xMidYMid meet" version="1.0"><path fill="#ffffff" d="M 831.753906 345.054688 C 827 362.828125 822.195312 380.546875 817.554688 398.378906 C 815.207031 407.265625 812.914062 416.152344 810.230469 424.984375 C 807.605469 433.539062 804.417969 442.648438 799.78125 450.417969 C 794.917969 458.523438 788.601562 464.839844 779.878906 468.921875 C 776.414062 470.542969 772.835938 471.660156 769.09375 472.441406 C 763.78125 473.558594 758.414062 474.007812 753.050781 474.34375 C 739.691406 475.070312 711.296875 474.957031 697.878906 474.957031 L 706.097656 444.550781 C 712.300781 444.550781 718.503906 444.550781 724.710938 444.382812 C 730.691406 444.214844 737.285156 443.878906 743.210938 442.480469 C 749.695312 440.972656 754.558594 438.34375 758.808594 433.089844 C 762.71875 428.285156 765.292969 422.300781 767.472656 416.710938 C 771.382812 406.429688 775.410156 391.671875 778.203125 381.105469 C 781.390625 369.089844 784.464844 357.070312 787.539062 345.054688 Z M 887.035156 345.054688 L 863.164062 433.480469 L 818.953125 433.480469 L 842.820312 345.054688 Z M 741.199219 311.851562 L 785.414062 311.851562 C 780.773438 329.121094 776.136719 346.394531 771.496094 363.609375 C 768.253906 375.628906 765.011719 387.648438 761.433594 399.609375 C 759.871094 404.808594 758.359375 410.003906 756.292969 415.035156 C 754.671875 419.117188 752.828125 422.695312 749.472656 425.710938 C 746.957031 428.003906 744.21875 429.402344 741.03125 430.40625 C 736.953125 431.691406 732.757812 432.195312 728.511719 432.53125 C 722.417969 433.035156 716.324219 433.144531 710.175781 433.257812 C 696.089844 433.480469 670.601562 433.425781 656.515625 433.371094 C 651.484375 433.371094 646.398438 433.3125 641.367188 433.203125 C 637.679688 433.144531 634.046875 433.035156 630.414062 432.8125 C 627.953125 432.644531 625.550781 432.476562 623.144531 432.027344 C 621.527344 431.75 619.960938 431.300781 618.394531 430.632812 C 613.308594 428.394531 610.738281 423.980469 610.625 418.613281 C 610.515625 415.539062 611.074219 412.578125 611.6875 409.613281 C 612.582031 405.421875 613.644531 401.230469 614.707031 397.09375 C 616.773438 389.15625 620.519531 374.453125 623.480469 366.742188 C 625.773438 360.703125 628.847656 354.667969 634.605469 350.8125 C 637.847656 348.6875 641.257812 347.511719 645 346.785156 C 647.796875 346.226562 650.589844 345.949219 653.386719 345.722656 C 658.082031 345.390625 662.832031 345.277344 667.527344 345.164062 C 674.234375 345.054688 680.945312 344.996094 687.652344 344.996094 L 721.1875 344.996094 L 715.207031 367.132812 C 705.257812 367.132812 695.308594 367.132812 685.359375 367.1875 C 682.453125 367.1875 679.546875 367.1875 676.640625 367.355469 C 675.632812 367.410156 674.628906 367.46875 673.621094 367.859375 C 672.335938 368.304688 671.664062 369.144531 671.105469 370.320312 C 670.265625 372.050781 669.765625 373.894531 669.261719 375.683594 C 668.421875 378.480469 667.695312 381.273438 666.914062 384.070312 C 665.738281 388.375 664.566406 392.734375 663.449219 397.039062 C 663.054688 398.660156 662.609375 400.222656 662.273438 401.898438 C 662.050781 403.019531 661.828125 404.191406 661.714844 405.308594 C 661.601562 406.59375 661.546875 408.105469 662.328125 409.277344 C 663.113281 410.453125 664.453125 410.730469 665.683594 410.957031 C 667.082031 411.179688 668.476562 411.179688 669.875 411.234375 C 672.167969 411.289062 674.460938 411.289062 676.75 411.347656 C 683.011719 411.402344 689.273438 411.402344 695.53125 411.347656 C 698.4375 411.347656 701.289062 411.289062 704.195312 411.179688 C 706.207031 411.125 708.164062 411.011719 710.121094 410.5625 C 711.628906 410.230469 712.75 409.613281 713.753906 408.441406 C 714.425781 407.601562 714.871094 406.707031 715.265625 405.757812 C 716.269531 403.355469 716.996094 400.839844 717.722656 398.378906 C 720.574219 388.820312 723.089844 379.207031 725.714844 369.59375 L 733.484375 340.75 L 741.199219 311.851562 L 785.414062 311.851562 Z M 741.199219 311.851562 " fill-opacity="1" fill-rule="evenodd"/></svg>