<svg xmlns="http://www.w3.org/2000/svg" xmlns:xlink="http://www.w3.org/1999/xlink" zoomAndPan="magnify" viewBox="569.193 369.725 301.280 70.216" preserveAspectRatio="xMidYMid meet" version="1.0"><path fill="#ffffff" d="M 722.28125 425.980469 L 722.28125 398.6875 L 710.605469 416.511719 L 710.285156 416.511719 L 698.457031 398.992188 L 698.457031 426.285156 L 689.621094 426.285156 L 689.621094 384.003906 L 699.40625 384.003906 L 710.449219 401.671875 L 721.339844 384.003906 L 730.8125 384.003906 L 730.8125 426.121094 L 722.292969 426.121094 L 722.292969 425.96875 Z M 755.882812 426.449219 C 744.6875 426.449219 738.0625 420.140625 738.0625 407.992188 L 738.0625 384.011719 L 746.894531 384.011719 L 746.894531 407.839844 C 746.894531 414.621094 750.527344 418.097656 756.046875 418.097656 C 761.570312 418.097656 765.199219 414.78125 765.199219 408.15625 L 765.199219 384.023438 L 773.882812 384.023438 L 773.882812 407.6875 C 773.882812 420.304688 767.101562 426.460938 755.894531 426.460938 M 789.660156 392.695312 L 789.660156 401.53125 L 808.117188 401.53125 L 808.117188 410.367188 L 789.660156 410.367188 L 789.660156 426.144531 L 780.824219 426.144531 L 780.824219 384.023438 L 813.324219 384.023438 L 813.324219 392.859375 L 789.660156 392.859375 Z M 836.832031 426.613281 C 823.898438 426.613281 815.0625 417.460938 815.0625 405.160156 L 815.0625 405.007812 C 815.0625 393.175781 824.214844 383.390625 836.832031 383.390625 C 844.410156 383.390625 848.828125 385.445312 853.082031 389.066406 L 847.242188 396.007812 C 844.082031 393.328125 841.402344 391.742188 836.515625 391.742188 C 829.890625 391.742188 824.683594 397.734375 824.683594 404.679688 L 824.683594 404.996094 C 824.683594 412.726562 829.734375 418.25 837.148438 418.25 C 840.464844 418.25 842.988281 417.460938 845.667969 415.722656 L 845.667969 410.203125 L 836.046875 410.203125 L 836.046875 401.367188 L 854.503906 401.367188 L 854.503906 419.824219 C 850.238281 423.605469 844.5625 426.601562 836.832031 426.601562 " fill-opacity="1" fill-rule="nonzero"/><path fill="#ffffff" d="M 642.765625 373.441406 C 638.195312 373.441406 633.777344 374.390625 629.828125 376.117188 C 626.046875 374.378906 621.628906 373.441406 617.046875 373.441406 C 599.695312 373.441406 585.488281 387.480469 585.488281 404.996094 C 585.488281 422.515625 599.695312 436.554688 617.046875 436.554688 C 621.617188 436.554688 626.035156 435.601562 629.984375 433.875 C 633.929688 435.613281 638.183594 436.554688 642.917969 436.554688 C 660.273438 436.554688 674.476562 422.351562 674.476562 404.996094 C 674.324219 387.480469 660.28125 373.441406 642.765625 373.441406 M 629.984375 433.546875 C 614.203125 433.546875 601.421875 420.765625 601.421875 404.984375 C 601.421875 389.207031 614.203125 376.425781 629.984375 376.425781 C 645.761719 376.425781 658.542969 389.207031 658.542969 404.984375 C 658.542969 420.765625 645.609375 433.546875 629.984375 433.546875 M 643.082031 404.984375 C 643.105469 412.203125 637.265625 418.0625 630.046875 418.085938 C 630.027344 418.085938 630.003906 418.085938 629.984375 418.085938 C 622.722656 418.085938 616.882812 412.246094 616.882812 404.984375 C 616.882812 397.726562 622.722656 391.898438 629.984375 391.898438 C 637.199219 391.875 643.0625 397.714844 643.082031 404.929688 C 643.082031 404.953125 643.082031 404.976562 643.082031 404.996094 " fill-opacity="1" fill-rule="nonzero"/></svg>