<svg xmlns="http://www.w3.org/2000/svg" xmlns:xlink="http://www.w3.org/1999/xlink" zoomAndPan="magnify" viewBox="557.640 292.687 324.053 207.285" preserveAspectRatio="xMidYMid meet" version="1.0"><path fill="#ffffff" d="M 772.417969 335.480469 C 783.742188 354.164062 781.386719 382.628906 767.730469 399.40625 C 752.617188 419.367188 727.695312 428.023438 703.078125 421.230469 C 680.703125 415.359375 662.449219 394.007812 660.402344 370.914062 C 657.605469 346.425781 669.003906 324.113281 689.699219 311.882812 C 705.65625 302.078125 730.265625 300.953125 746.871094 310.304688 C 756.957031 315.207031 767.105469 325.300781 772.414062 335.480469 Z M 721.144531 306.671875 C 721.359375 308.90625 721.359375 312.039062 721.144531 314.589844 C 721.207031 314.1875 721.539062 314.1875 721.824219 314.027344 C 722.601562 314.304688 722.601562 315.273438 722.386719 315.921875 L 722.226562 315.921875 C 726.234375 315.648438 730.121094 316.632812 733.773438 317.753906 C 737.621094 318.25 740.976562 322.875 744.761719 320.421875 C 745.8125 321.605469 747.640625 320.484375 748.207031 322.316406 C 749.664062 322.59375 750.4375 324.050781 751.433594 324.984375 C 751.316406 326.316406 752.550781 326.941406 752.984375 327.929688 L 752.984375 327.773438 C 754.253906 325.476562 756.273438 323.492188 758.507812 322.3125 C 754.585938 318.566406 750.207031 315.464844 745.371094 313.007812 C 740.535156 310.550781 735.445312 308.839844 730.109375 307.882812 C 727.226562 307.289062 723.992188 307.476562 721.140625 306.667969 Z M 680.691406 322.472656 L 687.269531 328.777344 C 689.292969 326.785156 691.484375 325.003906 693.84375 323.425781 C 696.199219 321.847656 698.683594 320.5 701.296875 319.386719 C 703.90625 318.273438 706.597656 317.414062 709.367188 316.804688 C 712.140625 316.199219 714.945312 315.851562 717.78125 315.769531 C 717.386719 312.976562 717.503906 309.851562 717.664062 306.953125 C 703.507812 307.757812 691.222656 313.097656 680.695312 322.472656 Z M 763.035156 308.820312 L 767.316406 313.101562 C 771.65625 319.808594 777.746094 326.449219 783.769531 330.667969 C 782.5 328.003906 782.21875 324.867188 780.890625 322.199219 C 778.222656 314.714844 769.90625 311.085938 763.042969 308.78125 Z M 675.601562 309.65625 C 670.292969 311.769531 664.550781 313.503906 660.605469 318.472656 C 657.527344 322.476562 656.601562 327.289062 655.019531 331.890625 L 659.707031 327.882812 C 666.808594 322.917969 668.703125 314.863281 675.597656 309.730469 Z M 727.992188 311.488281 L 723.988281 313.289062 C 723.59375 313.503906 722.15625 312.789062 722.410156 313.96875 C 723.1875 314.46875 723.960938 315.023438 724.921875 315.152344 C 727.4375 314.035156 730.449219 315.863281 732.558594 313.574219 C 731.9375 311.867188 729.703125 311.808594 728.027344 311.523438 Z M 779.277344 316.601562 C 785.203125 320.546875 784.800781 327.714844 786.914062 333.550781 C 787.472656 335.996094 788.964844 338.238281 789.144531 340.652344 C 785.980469 331.433594 775.238281 330.441406 771.359375 321.710938 L 772.574219 326.84375 C 775.582031 336.707031 787.347656 339.101562 791.816406 348.039062 C 790.421875 341.585938 792.871094 334.820312 790.917969 328.457031 C 789.339844 322.996094 784.800781 318.183594 779.277344 316.570312 Z M 649.785156 325.421875 C 645.253906 332.0625 648.949219 341.207031 647.675781 349.097656 C 649.253906 345.871094 652.421875 342.796875 655.15625 340.496094 C 661.457031 336.429688 667.105469 329.945312 667.320312 322.710938 C 663.96875 331.3125 652.917969 332.425781 650.1875 341.582031 L 649.910156 341.582031 C 653.976562 333.976562 651.679688 323.269531 659.441406 317.652344 C 655.378906 318.835938 651.933594 321.8125 649.789062 325.386719 Z M 721.011719 318.84375 C 721.40625 321.636719 721.289062 324.988281 721.132812 327.722656 C 728.207031 327.839844 734.910156 330.019531 740.433594 334.144531 C 740.101562 333.898438 739.839844 333.589844 739.65625 333.214844 C 739.46875 332.84375 739.378906 332.449219 739.382812 332.035156 L 739.597656 332.035156 C 739.71875 331.039062 738.203125 330.574219 738.699219 329.589844 C 740.03125 329.707031 741.066406 331.546875 741.777344 332.535156 C 745.625 332.472656 743.355469 337.066406 746.308594 338.433594 C 746.988281 338.773438 746.089844 340.167969 747.144531 340.011719 C 748.042969 340.71875 749.117188 341.53125 748.976562 342.675781 C 749.316406 344.652344 750.933594 342.058594 751.832031 343.359375 C 752.609375 343.980469 751.269531 344.355469 751.429688 345.097656 C 751.925781 345.3125 752.390625 344.597656 752.761719 345.214844 C 752.921875 345.898438 752.417969 346.179688 752.082031 346.546875 C 751.738281 347.734375 753.132812 347.046875 753.539062 347.601562 C 754.160156 348.9375 754.65625 350.957031 753.660156 352.445312 C 755.054688 353.964844 753.441406 355.523438 753.160156 356.972656 C 752.167969 357.9375 751.976562 360.140625 750.082031 359.640625 C 749.6875 360.417969 750.359375 361.320312 749.925781 361.9375 L 753.28125 362.097656 C 751.386719 359.429688 753.839844 356.847656 754.613281 354.460938 C 755.015625 354.304688 755.511719 353.464844 755.855469 354.304688 L 755.453125 357.53125 C 756.289062 358.800781 755.953125 360.609375 756.230469 362.09375 L 764.835938 361.933594 C 764.214844 356.253906 763.035156 350.789062 760.644531 345.859375 C 760.023438 346.074219 759.308594 346.539062 758.671875 346.132812 C 757.707031 344.863281 756.933594 343.277344 755.59375 342.1875 C 754.476562 342.1875 753.699219 341.289062 752.796875 340.726562 C 750.839844 340.792969 751.554688 337.933594 749.664062 338.335938 C 748.671875 337.839844 747.929688 337.34375 747.691406 336.167969 C 747.628906 334.832031 747.535156 333.15625 746.230469 332.160156 C 745.523438 331.757812 744.835938 332.28125 744.339844 332.722656 C 743.285156 333.40625 742.847656 332.222656 742.878906 331.386719 C 741.695312 330.488281 742.941406 329.492188 742.316406 328.441406 C 740.640625 327.105469 741.417969 324.59375 739.152344 323.476562 C 735.460938 321.707031 731.578125 320.59375 727.484375 319.75 C 725.40625 319.378906 723.144531 319.355469 721.089844 318.757812 Z M 746.582031 318.84375 C 746.1875 318.960938 746.308594 319.679688 746.464844 319.960938 C 747.925781 320.078125 747.925781 322.535156 749.628906 321.511719 L 749.226562 319.773438 C 748.832031 318.6875 747.300781 319.246094 746.582031 318.84375 Z M 689.167969 331.074219 C 691.402344 332.628906 693.574219 335.082031 695.402344 337.097656 C 701.296875 331.355469 709.246094 327.847656 717.777344 327.726562 C 717.621094 324.859375 717.621094 321.992188 717.777344 319.128906 C 706.976562 319.964844 697.257812 323.875 689.160156 331.074219 Z M 760.648438 324.367188 L 754.78125 330.667969 L 753.816406 330.789062 C 754.59375 330.789062 754.375 331.6875 754.871094 332.03125 C 757.316406 333.765625 758.441406 336.222656 760.519531 338.054688 C 761.296875 339.945312 763.316406 341.1875 763.316406 343.515625 C 766.195312 349.164062 767.570312 355.773438 767.875 362.257812 C 770.757812 361.914062 774.082031 361.863281 776.847656 361.855469 L 776.570312 361.578125 C 776.039062 347.085938 770.113281 334.699219 760.648438 324.367188 Z M 678.957031 325.332031 L 678.679688 324.492188 C 669.148438 334.859375 663.78125 347.957031 663.066406 362.265625 L 672.164062 362.382812 C 671.820312 359.503906 672.558594 356.703125 672.941406 353.847656 C 674.898438 345.4375 678.527344 337.460938 684.984375 331.191406 Z M 792.089844 327.441406 C 796.21875 333.464844 793.859375 341.9375 793.609375 348.988281 C 793.765625 352.402344 794.320312 355.785156 794.105469 359.199219 C 793.609375 357.867188 793.488281 356.40625 793.144531 355.007812 C 791.464844 347.375 782.496094 343.617188 778.867188 337.222656 C 779.425781 339.394531 779.828125 341.566406 780.601562 343.648438 C 783.734375 352.722656 793.113281 358.761719 794.382812 368.570312 C 795.21875 359.199219 801.800781 351.722656 799.347656 341.5 C 798.042969 336.378906 795.933594 331.351562 792.085938 327.441406 Z M 646.558594 328.683594 C 643.328125 332.53125 641.152344 337.15625 640.039062 342.101562 C 637.867188 352.375 644.042969 360.253906 645.40625 369.664062 C 647.203125 357.90625 659.589844 350.488281 660.242188 338.191406 C 656.613281 344.832031 647.796875 348.6875 646.183594 356.539062 C 646.183594 357.8125 645.78125 359.054688 645.5 360.265625 L 645.222656 359.988281 L 645.617188 354.859375 C 647.136719 345.796875 641.832031 336.421875 646.519531 328.695312 Z M 717.980469 330.667969 L 717.707031 330.886719 C 710.011719 331.28125 703.578125 334.734375 697.582031 339.359375 C 699.878906 340.851562 701.707031 343.207031 703.882812 345.226562 C 705.761719 343.429688 707.902344 342.027344 710.296875 341.015625 C 712.691406 340.003906 715.191406 339.453125 717.789062 339.359375 C 717.601562 336.8125 717.472656 333.441406 717.945312 330.667969 Z M 721.148438 330.789062 C 721.542969 333.390625 721.488281 336.46875 721.304688 339.199219 C 726.488281 339.605469 732.015625 341.714844 735.734375 345.097656 C 737.691406 343.125 739.863281 340.410156 742.039062 339.199219 C 735.921875 334.359375 729.0625 331.308594 721.152344 330.789062 Z M 686.910156 332.898438 L 686.910156 333.460938 C 679.835938 341.5625 675.863281 351.308594 675.152344 362.265625 C 678.03125 362.328125 681.234375 362.148438 683.964844 362.382812 L 683.691406 361.980469 C 684.25 353.324219 687.320312 345.472656 693.21875 339.234375 C 690.859375 337.339844 688.691406 335.167969 686.917969 332.929688 Z M 743.890625 341.21875 C 741.316406 344.226562 737.964844 347.425781 735.480469 350.3125 C 735.636719 350.714844 736.097656 351.148438 736.160156 350.996094 C 736.84375 350.160156 736.320312 348.046875 738.136719 348.480469 C 739.964844 349.101562 741.578125 348.878906 743.597656 349.164062 C 744.714844 349.785156 744.867188 351.121094 745.894531 351.679688 C 746.289062 352.175781 745.734375 352.640625 745.492188 353.011719 C 745.714844 353.210938 745.898438 353.4375 746.050781 353.695312 C 746.609375 353.199219 747.382812 352.511719 748.441406 352.796875 C 749.496094 352.859375 749.777344 354.347656 750.738281 354.53125 C 751.132812 355.09375 750.460938 355.648438 750.054688 355.867188 C 750.273438 356.917969 749.0625 357.261719 749.496094 358.257812 C 750.054688 358.375 750.613281 358.097656 750.828125 357.695312 C 752.941406 356.144531 751.222656 354.125 750.949219 352.234375 C 750.109375 350.5 748.34375 350.183594 746.941406 348.882812 C 747.011719 348.273438 747.292969 347.789062 747.777344 347.421875 C 747.683594 344.933594 745.175781 343.261719 743.832031 341.214844 Z M 695.410156 341.492188 C 693.515625 343.863281 691.683594 346.398438 690.28125 349.128906 C 688.109375 353.136719 687.488281 357.789062 686.648438 362.347656 L 690.28125 362.230469 C 689.660156 361.519531 689.785156 360.496094 689.785156 359.5625 C 690.621094 357.796875 690.96875 354.597656 693.628906 354.75 C 694.902344 354.472656 693.566406 353.476562 694.59375 352.949219 C 696.488281 352.671875 696.984375 350.898438 698.597656 350.070312 C 700.117188 349.910156 700.429688 347.773438 701.953125 347.621094 C 699.40625 345.855469 697.671875 343.617188 695.375 341.503906 Z M 721.296875 342.546875 L 721.515625 348.570312 L 723.808594 349.40625 C 724.492188 348.222656 725.703125 347.945312 726.476562 346.960938 C 727.1875 346.617188 727.1875 347.519531 727.53125 347.796875 C 727.925781 350.527344 724.953125 351.769531 723.277344 352.925781 L 723.960938 352.925781 C 725.695312 351.125 726.691406 355.160156 728.492188 353.328125 C 728.832031 351.03125 732.0625 351.355469 732.773438 349.046875 C 732.210938 349.605469 731.933594 348.984375 731.4375 348.828125 C 731.597656 348.050781 732.679688 347.558594 733.175781 347.03125 C 729.515625 344.734375 725.554688 343.253906 721.289062 342.589844 Z M 717.699219 342.734375 C 713.011719 343.414062 708.601562 345.125 705.253906 348.753906 C 706.367188 348.972656 707.484375 349.4375 708.328125 350.214844 C 708.605469 350.773438 707.832031 350.835938 707.769531 351.175781 C 708.480469 352.230469 708.546875 350.960938 709.289062 350.773438 C 709.972656 351.457031 710.558594 351.957031 711.523438 351.457031 C 712.019531 352.292969 712.792969 351.519531 713.417969 351.574219 C 713.632812 350.894531 714.601562 350.332031 714.195312 349.601562 C 714.539062 348.984375 714.691406 348.023438 715.527344 348.023438 C 715.03125 350.628906 717.484375 348.023438 718.195312 349.269531 C 717.40625 347.308594 718.007812 344.707031 717.699219 342.8125 Z M 801.472656 349.125 C 803.023438 358.203125 797.527344 364.910156 795.328125 372.800781 C 794.085938 375.8125 794.621094 379.660156 792.753906 382.300781 C 792.632812 380.78125 793.464844 379.351562 793.589844 377.738281 C 794.984375 367.652344 786.234375 361.664062 784.21875 353.125 C 784.109375 355.316406 784.246094 357.488281 784.621094 359.644531 C 785.117188 370.292969 792.101562 378.949219 790.082031 390.0625 C 792.054688 387.457031 793.632812 384.753906 796.007812 382.171875 C 804.046875 373.757812 806.09375 359.757812 801.46875 349.054688 Z M 638.027344 350.308594 C 635.144531 357.019531 635.296875 365.855469 637.464844 372.800781 C 639.359375 380.003906 646.21875 385.035156 649.789062 391.269531 C 649.171875 388.664062 649.292969 385.34375 649.671875 382.667969 C 652.039062 373.355469 655.691406 364.359375 655.132812 354.050781 C 653.734375 361.46875 647.09375 366.679688 646.316406 374.347656 C 645.820312 377.480469 646.59375 380.554688 647 383.320312 C 646.289062 381.921875 645.601562 380.308594 645.480469 378.503906 C 644.394531 368.507812 636.292969 361.121094 638.03125 350.257812 Z M 717.515625 353.859375 L 717.675781 353.980469 C 717.832031 354.816406 718.453125 356.089844 717.675781 356.648438 C 716.679688 357.980469 714.261719 357.699219 713.949219 359.503906 C 711.34375 360.28125 712.371094 363.507812 711.503906 365.527344 C 709.824219 365.929688 710.449219 363.945312 709.671875 363.230469 L 709.269531 363.726562 C 706.691406 361.769531 707.191406 365.960938 705.640625 366.304688 C 707.40625 366.707031 708.929688 365.683594 710.769531 365.621094 C 710.886719 365.835938 711.328125 365.964844 711.171875 366.304688 L 711.449219 366.304688 C 711.851562 365.902344 711.84375 365.402344 711.851562 364.84375 C 712.007812 364.28125 712.6875 363.941406 713.183594 364.28125 C 713.027344 364.84375 713.402344 365.277344 713.867188 365.527344 L 712.902344 366.859375 C 712.40625 367.417969 713.023438 368.9375 711.71875 368.832031 C 711.445312 368.894531 711.222656 368.675781 711.316406 368.4375 L 711.039062 368.4375 L 711.722656 369.679688 C 712.5 369.617188 712.34375 368.222656 713.300781 368.101562 C 714.203125 367.886719 714.296875 366.832031 714.203125 365.992188 C 715.386719 364.996094 716.804688 365.589844 718.148438 365.429688 C 718.492188 365.773438 719.265625 365.824219 719.109375 366.484375 C 719.609375 367.480469 718.765625 368.59375 718.148438 369.433594 C 718.425781 369.992188 717.746094 370.425781 717.746094 371.011719 C 716.691406 372.128906 715.511719 371.628906 714.113281 371.972656 C 715.882812 373.214844 717.808594 373.945312 720.136719 373.804688 C 722.371094 373.960938 721.320312 371.136719 722.929688 370.234375 C 723.894531 370.113281 724.699219 370.351562 725.789062 370.074219 C 726.183594 369.238281 726.285156 368.246094 726.46875 367.28125 C 725.507812 366.886719 725.851562 365.882812 725.789062 365.109375 C 725.226562 364.429688 725.289062 363.21875 724.210938 363.136719 C 723.992188 362.519531 724.605469 362.238281 724.613281 361.679688 C 726.289062 361.058594 723.710938 360.101562 724.769531 359.101562 C 722.875 358.757812 722.402344 355.746094 720.082031 356.710938 C 719.519531 355.933594 718.109375 355.59375 718.109375 354.414062 C 718.265625 353.578125 720.160156 353.917969 719.9375 354.011719 C 719.820312 353.851562 719.597656 353.734375 719.664062 353.511719 C 718.953125 353.449219 718.113281 353.511719 717.691406 353.882812 Z M 693.710938 361.0625 C 691.65625 361.746094 693.710938 363.667969 693.589844 365.007812 C 693.375 366.0625 692.320312 365.226562 691.695312 365.691406 C 691.972656 367.425781 690.511719 367.769531 689.304688 368.082031 C 688.902344 369.265625 690.207031 369.820312 689.582031 370.941406 C 691.074219 372.457031 692.25 374.292969 691.972656 376.402344 C 693.027344 377.921875 692.75 380.1875 693.027344 382.140625 C 693.925781 383.042969 694.425781 384.375 694.359375 385.773438 C 694.425781 386.484375 693.652344 386.734375 693.175781 387.015625 C 692.617188 387.699219 693.578125 387.359375 693.578125 387.914062 L 701.0625 380.15625 C 698.457031 377.148438 696.375 373.140625 695.601562 368.949219 L 694.636719 368.390625 C 694.480469 369.445312 694.519531 370.96875 693.582031 371.339844 C 693.085938 370.945312 692.09375 370.65625 692.09375 369.757812 C 692.367188 369.140625 692.871094 369.542969 693.335938 369.484375 C 693.273438 368.984375 693.398438 368.488281 693.453125 368.023438 C 693.609375 367.402344 692.554688 366.96875 693.335938 366.445312 C 694.015625 366.382812 694.296875 367.15625 694.792969 367.5 L 696.128906 366.816406 C 695.726562 365.546875 696.472656 363.523438 696.011719 362.128906 C 695.824219 361.011719 694.613281 361.226562 693.714844 361.164062 Z M 748.585938 362.179688 L 749.265625 362.179688 Z M 747.652344 364.972656 L 749.144531 366.710938 C 749.082031 368.667969 751.75 369.285156 751.9375 371.269531 C 752.5 369.441406 752.433594 367.324219 752.992188 365.53125 C 751.28125 365.34375 749.046875 365.902344 747.652344 364.96875 Z M 767.613281 365.066406 L 767.886719 365.628906 C 767.765625 368.453125 767.390625 371.242188 766.769531 374 C 766.148438 376.757812 765.289062 379.4375 764.191406 382.042969 C 763.089844 384.644531 761.769531 387.132812 760.226562 389.5 C 758.683594 391.867188 756.945312 394.082031 755.007812 396.140625 C 757.253906 398.1875 759.40625 400.328125 761.464844 402.5625 C 768.882812 394.027344 773.972656 384.4375 775.742188 373.542969 C 776.359375 370.75 776.136719 367.742188 776.984375 365.070312 C 774.253906 365.847656 771.066406 365.347656 768.015625 365.464844 Z M 756.167969 365.253906 C 756.511719 366.371094 755.824219 367.421875 755.890625 368.609375 C 754.707031 370.566406 757.410156 371.054688 756.667969 372.890625 C 756.171875 373.292969 755.675781 373.230469 755.089844 373.007812 C 753.695312 378.46875 750.964844 383.503906 747.054688 387.84375 L 746.652344 387.84375 C 747.644531 388.464844 748.386719 389.816406 749.507812 390.140625 L 749.507812 389.363281 C 749.722656 389.207031 749.851562 388.804688 750.191406 388.960938 C 752.359375 389.644531 752.558594 392.65625 752.703125 394.089844 C 758.386719 388.171875 761.921875 381.070312 763.691406 373.328125 C 764.308594 370.75 763.964844 367.644531 765.023438 365.410156 C 762.101562 365.570312 758.9375 365.726562 756.207031 365.292969 Z M 686.71875 365.347656 C 687.335938 367.320312 687.988281 369.539062 687.496094 371.773438 C 687.496094 370.777344 689.664062 369.800781 687.890625 368.890625 C 688.570312 367.898438 688.046875 365.757812 689.347656 365.664062 C 688.324219 365.878906 687.550781 365.878906 686.683594 365.347656 Z M 663.285156 365.625 C 663.90625 379.839844 669.152344 392.285156 678.398438 402.835938 C 680.449219 400.664062 682.738281 398.210938 684.976562 396.410156 C 683.859375 395.703125 683.144531 394.4375 682.027344 393.464844 C 680.632812 393.1875 679.660156 391.886719 679.363281 390.671875 C 679.425781 390.828125 679.203125 390.945312 679.085938 391.074219 C 677.816406 391.691406 677.410156 390.109375 676.570312 389.613281 C 675.792969 389.210938 676.414062 387.441406 675.050781 388.09375 C 674.273438 386.824219 672.820312 386.910156 672.257812 385.425781 L 671.699219 386.386719 C 670.703125 386.324219 669.960938 385.117188 669.402344 384.496094 C 667.351562 385.113281 668.160156 382.261719 667.011719 381.328125 C 666.617188 379.53125 667.128906 377.882812 668.0625 376.488281 C 668.683594 375.925781 669.863281 376.371094 670.035156 376.765625 C 671.089844 377.167969 670.441406 375.925781 671 375.710938 C 672.492188 374.441406 673.234375 376.207031 674.078125 377.171875 C 672.835938 373.597656 672.105469 369.414062 672.246094 365.5625 C 669.367188 365.90625 666.128906 365.808594 663.25 365.625 Z M 675.042969 365.53125 L 675.320312 365.933594 C 675.597656 369.9375 676.71875 373.847656 677.058594 377.691406 C 677.554688 377.347656 677.214844 376.449219 677.894531 376.449219 C 678.109375 374.554688 678.390625 372.382812 679.628906 370.707031 C 681.398438 370.644531 681.460938 368.261719 683.355469 368.410156 C 683.75 368.753906 684.410156 369.1875 684.597656 369.742188 C 683.636719 368.628906 683.605469 366.863281 684.039062 365.488281 C 681.210938 365.890625 677.894531 365.890625 675.039062 365.523438 Z M 699.3125 369.101562 L 699.808594 369.9375 C 700.492188 372.730469 702.179688 375.058594 703.535156 377.574219 L 706.113281 374.90625 C 706.050781 374.5625 706.230469 374.195312 705.992188 373.941406 C 705.496094 373.261719 705.835938 372.046875 705.15625 371.644531 C 704.941406 372.265625 705.65625 372.609375 705.316406 373.105469 C 704.480469 372.761719 703.578125 372.394531 703.144531 371.371094 C 703.300781 370.097656 702.367188 371.027344 701.683594 370.40625 C 701.652344 369.042969 699.917969 369.941406 699.324219 369.105469 Z M 708.683594 371.398438 C 708.527344 372.175781 707.90625 372.792969 707.441406 373.371094 C 708.21875 373.027344 708.683594 371.851562 709.554688 371.910156 Z M 785.65625 372.449219 C 780.351562 383.875 784.199219 399.046875 777.742188 409.945312 L 778.796875 409.046875 C 791.335938 402.1875 806.449219 390.640625 803.972656 373.789062 C 803.753906 376.085938 803.007812 378.128906 802 380.089844 C 797.09375 387.726562 788.714844 393.964844 784.585938 401.914062 C 784.464844 402.1875 784.085938 402.308594 783.902344 402.070312 L 784.738281 401.015625 C 790.664062 392.480469 785.359375 381.988281 785.699219 372.460938 Z M 732.488281 373.382812 C 731.246094 375.117188 733.671875 374.960938 733.820312 376.460938 C 734.097656 376.460938 734.441406 376.578125 734.597656 376.339844 C 734.441406 375.722656 734.480469 375.070312 733.917969 374.605469 C 732.984375 374.636719 732.984375 373.394531 732.488281 373.394531 Z M 654.277344 373.566406 C 654.960938 377.261719 653.777344 380.488281 653.222656 383.839844 C 651.328125 390.261719 652.261719 397.777344 656.015625 403.015625 C 654.773438 402.398438 654.042969 400.964844 653.222656 399.664062 C 648.597656 390.785156 636.925781 385.757812 635.9375 375.109375 C 635.875 378.957031 635.875 383.027344 637.054688 386.503906 C 640.285156 398.421875 653.445312 404.566406 662.324219 410.589844 C 656.019531 399.726562 659.375 384.921875 654.285156 373.558594 Z M 747.324219 374.066406 C 745.746094 372.851562 746.054688 375.179688 744.65625 375.027344 C 744.160156 374.910156 744.039062 374.316406 743.976562 373.785156 C 743.855469 375.054688 742.859375 376.019531 742.144531 377.011719 C 739.566406 376.300781 740.25 379.894531 737.671875 379.125 C 738.015625 380.117188 739.132812 378.964844 739.644531 379.28125 C 740.039062 379.066406 739.988281 378.597656 740.207031 378.320312 C 740.484375 377.265625 741.757812 376.859375 742.785156 377.265625 C 743.34375 378.164062 743.492188 379.238281 743.464844 380.34375 C 742.847656 380.738281 742.847656 381.527344 742.90625 382.238281 C 742.128906 383.507812 742.511719 386.242188 740.113281 385.960938 C 737.664062 385.0625 734.988281 384.410156 732.289062 384.382812 L 732.289062 384.945312 C 734.089844 385.628906 736.078125 385.628906 737.539062 386.917969 C 739.089844 386.757812 741.089844 387.132812 742.226562 386.234375 C 742.382812 385.121094 742.828125 384.136719 743.5625 383.285156 C 744.554688 383.40625 744.339844 384.746094 744.804688 385.398438 C 747.75 381.671875 750.328125 378.105469 751.324219 373.511719 C 749.863281 373.449219 748.808594 374.289062 747.285156 374.074219 Z M 711.476562 373.945312 L 706.109375 379.96875 C 709.1875 382.335938 712.75 384.160156 716.761719 384.78125 C 716.699219 383.730469 716.699219 382.671875 717.261719 381.835938 C 717.820312 381.492188 718.65625 381.992188 719.152344 381.433594 C 719.089844 380.933594 718.75 380.933594 718.472656 380.46875 C 718.128906 379.691406 718.472656 378.976562 718.589844 378.496094 C 718.808594 378.09375 718.195312 377.226562 718.867188 376.945312 C 717.128906 377.78125 715.574219 376.601562 714.050781 376.109375 C 713.214844 375.457031 711.683594 375.300781 711.507812 373.996094 Z M 728.757812 379.96875 C 729.441406 379.070312 730.871094 379.257812 731.148438 378.230469 C 729.90625 378.015625 728.574219 378.914062 728.757812 379.96875 Z M 731.921875 381.300781 C 731.304688 381.644531 730.808594 381.644531 730.464844 382.355469 C 729.753906 383.320312 728.886719 382.292969 728.167969 381.953125 C 728.382812 382.230469 728.878906 382.914062 728.285156 383.285156 C 727.574219 384.0625 726.886719 382.945312 726.175781 382.726562 C 725.773438 385.171875 724.902344 382.042969 723.597656 382.609375 C 723.035156 381.210938 722.078125 382.882812 721.207031 382.726562 C 720.523438 383.285156 720.496094 384.898438 719.234375 384.699219 C 718.957031 385.476562 717.898438 385.195312 717.773438 385.753906 C 718.390625 386.464844 719.234375 386.15625 719.882812 386.03125 C 720.9375 385.066406 722.277344 385.6875 723.515625 385.53125 C 723.394531 387.503906 725.746094 386.03125 726.460938 387.269531 C 727.300781 387.207031 727.300781 386.367188 727.644531 385.75 C 729.382812 385.472656 731.199219 384.414062 732.117188 383.082031 C 732.367188 382.617188 732.675781 381.53125 731.960938 381.25 Z M 703.433594 382.265625 C 701.613281 384.460938 699.605469 386.46875 697.410156 388.285156 L 697.8125 388.285156 C 702.71875 392.539062 708.925781 395.488281 714.730469 396.414062 C 712.621094 396.140625 711.78125 394.054688 710.785156 392.46875 C 710.222656 391.199219 712.179688 390.917969 711.839844 389.589844 C 712.546875 388.40625 713.667969 387.757812 715.066406 387.617188 C 714.382812 387.734375 713.730469 387.832031 713.09375 388.019531 C 709.554688 386.835938 705.988281 385.289062 703.441406 382.277344 Z M 780.28125 389.339844 L 775.515625 395.445312 C 769.214844 404.132812 769.929688 416.023438 761.175781 423.441406 C 765.707031 421.980469 770.675781 421.363281 775.332031 420.363281 C 785.882812 417.695312 796.964844 407.34375 798.484375 396.492188 C 796.59375 401.019531 792.617188 404.382812 788.621094 406.988281 C 781.699219 410.214844 774.683594 413.910156 768.820312 419.03125 L 768.136719 419.03125 L 768.539062 418.46875 C 778.65625 411.761719 775.925781 398.859375 780.207031 389.292969 Z M 744.53125 390.023438 L 744.53125 390.140625 C 740.339844 393.089844 746.503906 393.21875 746.644531 395.792969 C 746.023438 397.035156 743.785156 398.238281 745.183594 399.738281 C 745.578125 400.234375 744.964844 400.636719 744.78125 401.070312 L 750.523438 396.230469 C 749.8125 396.726562 748.941406 396.386719 748.546875 395.734375 C 748.667969 393.15625 745.628906 392.070312 744.574219 390.050781 Z M 659.644531 390.300781 L 661.222656 394.425781 C 662.773438 403.675781 663.519531 413.890625 671.929688 419.753906 L 671.8125 419.871094 C 669.082031 418.6875 667 416.425781 664.550781 414.90625 C 656.636719 409.785156 645.714844 407.488281 641.242188 397.683594 C 642.484375 404.882812 647.386719 411.308594 653.285156 415.746094 C 660.359375 421.980469 670.234375 421.488281 678.933594 424.003906 C 675.769531 421.554688 673.972656 418.753906 672.511719 415.3125 C 669.378906 406.53125 666.585938 397.375 659.664062 390.296875 Z M 697.140625 392.128906 L 697.820312 392.964844 Z M 698.070312 393.183594 C 698.070312 394.148438 699.339844 394.179688 698.847656 395.355469 C 696.953125 396.539062 694.65625 395.699219 692.824219 397.089844 C 691.148438 397.988281 689.746094 396.035156 688.820312 396.128906 C 696.949219 403.144531 706.511719 407.828125 717.5 408.359375 L 718.183594 408.761719 C 717.789062 406.09375 717.90625 402.960938 718.066406 400.160156 C 710.582031 400.554688 703.859375 397.492188 698.078125 393.175781 Z M 752.855469 398.148438 C 751.578125 399.886719 750.015625 401.316406 748.164062 402.429688 C 742.363281 404.402344 741.804688 410.902344 736.121094 413.082031 C 733.890625 413.984375 732.570312 411.109375 730.597656 410.636719 C 727.585938 411.132812 724.453125 411.972656 721.378906 411.472656 L 721.378906 420.847656 L 721.78125 420.570312 C 725.253906 420.433594 728.683594 419.984375 732.074219 419.230469 C 735.464844 418.472656 738.761719 417.421875 741.964844 416.074219 C 745.164062 414.722656 748.21875 413.097656 751.128906 411.199219 C 754.039062 409.300781 756.753906 407.15625 759.277344 404.769531 C 756.980469 402.597656 754.53125 400.363281 752.855469 398.191406 Z M 686.953125 398.707031 L 680.746094 405.132812 C 691.332031 414.628906 704.027344 419.753906 718.242188 420.652344 L 717.839844 419.96875 C 717.957031 417.175781 717.621094 414.226562 718.117188 411.558594 L 717.996094 411.714844 C 706.140625 411.371094 695.308594 406.96875 686.960938 398.707031 Z M 720.910156 400.679688 L 721.46875 401.644531 L 721.351562 408.71875 C 723.402344 407.941406 726.257812 408.007812 728.152344 407.664062 C 727.035156 406.550781 725.355469 406.671875 724.921875 405 C 724.144531 403.882812 725.265625 402.703125 725.199219 401.769531 C 723.867188 401.121094 721.875 401.890625 720.917969 400.683594 Z M 768.335938 407.390625 C 761.910156 411.582031 756.386719 418.714844 750.550781 423.28125 C 747.320312 425.726562 743.472656 426.445312 739.6875 427.5625 C 748.066406 428.179688 755.019531 432.125 763.773438 431.566406 C 764.925781 431.511719 766.074219 431.382812 767.210938 431.179688 C 768.351562 430.972656 769.46875 430.699219 770.574219 430.347656 C 771.675781 430 772.75 429.582031 773.796875 429.09375 C 774.847656 428.605469 775.859375 428.050781 776.835938 427.433594 C 777.8125 426.8125 778.746094 426.132812 779.632812 425.394531 C 780.523438 424.65625 781.359375 423.859375 782.144531 423.011719 C 782.929688 422.164062 783.65625 421.269531 784.328125 420.328125 C 784.996094 419.382812 785.605469 418.402344 786.148438 417.382812 C 779.691406 425.074219 769.296875 424.640625 759.761719 425.511719 C 756.597656 425.914062 753.460938 426.84375 750.265625 426.84375 C 750.382812 426.726562 750.480469 426.5 750.667969 426.566406 C 761.066406 425.730469 764.011719 414.402344 768.328125 407.390625 Z M 671.527344 408.039062 C 675.808594 413.066406 676 419.710938 681.957031 423.839844 C 684.253906 425.8125 687.324219 426.230469 689.875 427.285156 C 687.015625 427.5625 684.414062 426.386719 681.554688 426.230469 C 671.964844 425.046875 660.976562 426.296875 653.933594 418.472656 C 657.097656 424.0625 662.75 428.902344 668.644531 430.796875 C 679.789062 435.050781 689.90625 428.824219 700.550781 427.851562 C 688.230469 427.289062 681.523438 413.789062 671.53125 408.046875 Z M 751.886719 434.144531 C 742.355469 429.804688 731.308594 424.925781 720.136719 429.015625 C 717.101562 428.097656 713.996094 427.640625 710.824219 427.640625 C 707.652344 427.640625 704.546875 428.097656 701.511719 429.015625 C 691.703125 433.484375 678.296875 440.222656 667.96875 432.738281 C 669.925781 435.105469 672.035156 436.183594 674.269531 437.871094 C 680.980469 442.210938 690.628906 441.816406 697.554688 438.273438 C 703.914062 435.605469 708.761719 427.625 716.859375 430.144531 C 710 433.585938 703.695312 437.71875 698.019531 443.636719 L 701.464844 446.585938 C 706.492188 439.945312 713.222656 434.421875 720.492188 431.195312 C 727.507812 434.609375 733.933594 440.445312 739.234375 446.308594 L 742.679688 443.363281 C 737.09375 437.957031 730.636719 433.582031 723.9375 430.144531 C 725.671875 429.75 727.785156 429.800781 729.554688 429.984375 C 736.816406 433.148438 742.371094 439.515625 750.601562 440.480469 C 759.289062 441.878906 767.054688 438.371094 772.421875 432.007812 L 768.292969 434.179688 C 763.453125 436.324219 756.902344 435.757812 751.96875 434.148438 Z M 595.535156 463.398438 L 595.535156 479.859375 C 595.535156 481.832031 595.210938 483.410156 594.246094 484.703125 C 593.453125 486.210938 592.269531 487.285156 590.691406 487.929688 C 589.113281 488.574219 587.464844 489.21875 585.167969 489.21875 C 581.941406 489.21875 579.644531 488.253906 577.742188 486.636719 C 576.164062 485.058594 575.15625 482.761719 575.15625 479.855469 L 575.15625 463.398438 L 579.355469 463.398438 L 579.355469 479.574219 C 579.355469 481.546875 580.003906 483.128906 580.933594 484.09375 C 581.867188 485.0625 583.519531 485.671875 585.453125 485.671875 C 589.328125 485.671875 591.265625 483.699219 591.265625 479.539062 L 591.265625 463.359375 Z M 595.535156 463.398438 " fill-opacity="1" fill-rule="nonzero"/><path fill="#ffffff" d="M 622.980469 488.613281 L 617.808594 488.613281 L 605.222656 468.273438 L 605.222656 469.242188 C 605.546875 471.5 605.546875 473.4375 605.546875 475.054688 L 605.546875 488.613281 L 601.671875 488.613281 L 601.671875 463.109375 L 606.839844 463.109375 L 619.429688 483.125 L 619.429688 463.109375 L 623.304688 463.109375 L 623.304688 488.613281 Z M 622.980469 488.613281 " fill-opacity="1" fill-rule="nonzero"/><path fill="#ffffff" d="M 629.117188 488.652344 L 629.117188 463.148438 L 633.316406 463.148438 L 633.316406 488.652344 Z M 648.847656 488.652344 L 644.648438 488.652344 L 644.648438 466.699219 L 637.222656 466.699219 L 637.222656 463.148438 L 656.269531 463.148438 L 656.269531 466.699219 L 648.851562 466.699219 Z M 674.3125 488.652344 L 659.777344 488.652344 L 659.777344 463.148438 L 674.308594 463.148438 L 674.308594 466.699219 L 663.976562 466.699219 L 663.976562 473.480469 L 673.660156 473.480469 L 673.660156 477.03125 L 663.976562 477.03125 L 663.976562 485.101562 L 674.308594 485.101562 Z M 700.144531 475.738281 C 700.144531 479.9375 698.855469 483.167969 696.59375 485.421875 C 694.332031 487.679688 690.78125 488.652344 686.585938 488.652344 L 679.484375 488.652344 L 679.484375 463.148438 L 687.234375 463.148438 C 691.433594 463.148438 694.335938 464.113281 696.597656 466.375 C 699.183594 468.636719 700.148438 471.902344 700.148438 475.738281 Z M 695.941406 476.023438 C 695.941406 469.890625 693.039062 466.949219 687.550781 466.949219 L 684 466.949219 L 684 485.347656 L 686.902344 485.347656 C 692.714844 485.023438 695.980469 482.121094 695.980469 475.984375 Z M 735.976562 488.652344 L 730.847656 488.652344 L 718.21875 468.3125 L 718.21875 469.28125 C 718.542969 471.542969 718.542969 473.480469 718.542969 475.09375 L 718.542969 488.652344 L 714.667969 488.652344 L 714.667969 463.148438 L 719.796875 463.148438 L 732.425781 483.164062 L 732.425781 463.148438 L 736.300781 463.148438 Z M 758.574219 488.652344 L 755.992188 481.546875 L 746.308594 481.546875 L 743.722656 488.652344 L 739.203125 488.652344 L 748.566406 463.148438 L 753.085938 463.148438 L 762.453125 488.652344 Z M 754.699219 477.996094 L 752.4375 471.21875 C 752.117188 470.894531 752.117188 469.925781 751.792969 468.957031 C 751.46875 467.984375 751.144531 467.378906 751.144531 466.695312 C 750.820312 467.984375 750.496094 469.601562 749.855469 471.214844 L 747.59375 477.992188 Z M 772.78125 488.652344 L 768.582031 488.652344 L 768.582031 466.699219 L 761.152344 466.699219 L 761.152344 463.148438 L 780.199219 463.148438 L 780.199219 466.699219 L 772.773438 466.699219 Z M 784.078125 488.652344 L 784.078125 463.148438 L 788.277344 463.148438 L 788.277344 488.652344 Z M 817.332031 476.023438 C 817.332031 480.222656 816.367188 483.449219 814.105469 485.707031 C 812.132812 487.96875 809.261719 489.257812 805.421875 489.257812 C 801.585938 489.257812 798.644531 487.96875 796.742188 485.707031 C 794.839844 483.445312 793.515625 480.183594 793.515625 476.023438 C 793.515625 471.863281 794.480469 468.597656 796.742188 466.339844 C 798.714844 464.078125 801.871094 463.113281 805.421875 463.113281 C 809.296875 463.113281 812.203125 464.402344 814.105469 466.664062 C 816.367188 468.636719 817.332031 471.792969 817.332031 476.027344 Z M 797.996094 476.023438 C 797.996094 479.253906 798.644531 481.546875 799.96875 483.128906 C 801.296875 484.707031 803.199219 485.710938 805.496094 485.710938 C 808.078125 485.710938 809.691406 485.066406 811.019531 483.449219 C 812.34375 481.835938 812.992188 479.574219 812.992188 476.347656 C 812.992188 473.121094 812.34375 470.824219 811.019531 469.246094 C 809.691406 467.667969 807.792969 466.984375 805.496094 466.984375 C 802.910156 466.984375 800.976562 467.628906 799.96875 469.246094 C 798.679688 470.535156 797.996094 472.796875 797.996094 476.023438 Z M 797.996094 476.023438 " fill-opacity="1" fill-rule="nonzero"/><path fill="#ffffff" d="M 843.484375 488.613281 L 838.3125 488.613281 L 825.726562 468.273438 L 825.726562 469.242188 C 826.050781 471.5 826.050781 473.4375 826.050781 475.054688 L 826.050781 488.613281 L 822.175781 488.613281 L 822.175781 463.109375 L 827.34375 463.109375 L 839.933594 483.125 L 839.933594 463.109375 L 843.808594 463.109375 L 843.808594 488.613281 Z M 843.484375 488.613281 " fill-opacity="1" fill-rule="nonzero"/><path fill="#ffffff" d="M 864.789062 481.835938 C 864.789062 484.097656 863.820312 485.710938 862.203125 487.007812 C 860.585938 488.300781 858.328125 488.941406 855.425781 488.941406 C 852.519531 488.941406 850.253906 488.617188 848.320312 487.648438 L 848.320312 483.773438 C 849.613281 484.421875 850.582031 484.742188 851.871094 485.066406 C 853.164062 485.386719 854.457031 485.386719 855.425781 485.386719 C 857.042969 485.386719 858.328125 485.066406 858.976562 484.421875 C 859.625 483.777344 860.265625 482.804688 860.265625 481.835938 C 860.292969 480.933594 859.972656 480.179688 859.300781 479.574219 C 858.652344 478.929688 857.039062 478.285156 854.78125 477.3125 C 852.523438 476.34375 850.90625 475.378906 849.941406 474.085938 C 848.972656 472.792969 848.648438 471.5 848.648438 469.886719 C 848.648438 467.625 849.296875 466.011719 850.910156 464.71875 C 852.523438 463.425781 854.460938 462.785156 857.042969 462.785156 C 859.625 462.785156 861.882812 463.433594 864.46875 464.402344 L 863.179688 467.628906 C 860.917969 466.664062 858.980469 466.339844 857.046875 466.339844 C 855.757812 466.339844 854.785156 466.664062 854.140625 467.308594 C 853.46875 467.910156 853.148438 468.664062 853.175781 469.566406 C 853.175781 470.214844 853.175781 470.859375 853.5 471.1875 C 853.824219 471.515625 854.144531 472.152344 854.789062 472.476562 L 858.339844 474.09375 C 860.273438 474.742188 861.570312 475.710938 862.539062 476.355469 C 863.511719 477 864.15625 477.644531 864.472656 478.617188 C 864.789062 479.585938 864.796875 480.550781 864.796875 481.84375 Z M 864.789062 481.835938 " fill-opacity="1" fill-rule="nonzero"/></svg>