<svg xmlns="http://www.w3.org/2000/svg" xmlns:xlink="http://www.w3.org/1999/xlink" zoomAndPan="magnify" viewBox="582.247 329.522 250.507 154.624" preserveAspectRatio="xMidYMid meet" version="1.0"><defs><clipPath id="ddade1533f"><path d="M 566.484375 253.800781 L 848.484375 253.800781 L 848.484375 535.800781 L 566.484375 535.800781 Z M 566.484375 253.800781 " clip-rule="nonzero"/></clipPath></defs><g clip-path="url(#ddade1533f)"><path fill="#000000" d="M 566.484375 253.800781 L 848.824219 253.800781 L 848.824219 536.140625 L 566.484375 536.140625 Z M 566.484375 253.800781 " fill-opacity="1" fill-rule="evenodd"/></g><path fill="#ffffff" d="M 672.980469 360.839844 C 672.640625 359.652344 672.46875 358.628906 672.46875 357.441406 C 672.46875 352.339844 675.867188 347.753906 681.988281 347.753906 C 683.347656 347.753906 684.539062 347.921875 685.558594 348.261719 C 686.625 347.371094 687.757812 346.578125 688.957031 345.882812 C 686.804688 344.628906 684.480469 344.003906 681.988281 344.011719 C 674.507812 344.011719 668.21875 349.960938 668.21875 357.4375 C 668.21875 359.988281 669.070312 362.539062 670.261719 364.578125 C 670.601562 364.070312 670.941406 363.558594 671.28125 363.21875 C 671.789062 362.371094 672.46875 361.519531 672.980469 360.839844 Z M 691.335938 347.582031 C 690.148438 348.261719 689.128906 348.941406 688.109375 349.792969 C 690.320312 351.492188 691.507812 354.378906 691.507812 357.441406 C 691.507812 362.539062 687.769531 366.960938 681.988281 366.960938 C 678.757812 366.960938 676.207031 365.601562 674.507812 363.390625 C 674.167969 363.898438 673.832031 364.238281 673.488281 364.75 C 672.980469 365.429688 672.46875 366.109375 672.128906 366.792969 C 674.679688 369.171875 678.078125 370.699219 681.988281 370.699219 C 689.636719 370.699219 695.757812 364.921875 695.757812 357.441406 C 695.757812 353.53125 694.058594 349.960938 691.335938 347.582031 Z M 667.027344 392.117188 C 667.027344 396.195312 664.652344 399.765625 661.082031 401.128906 L 661.082031 405.203125 C 666.859375 403.675781 671.277344 398.578125 671.277344 392.117188 C 671.277344 387.527344 668.730469 383.445312 664.988281 380.898438 C 664.480469 382.257812 664.140625 383.445312 663.628906 384.636719 C 665.839844 386.507812 667.027344 389.226562 667.027344 392.117188 Z M 658.359375 401.804688 L 657.511719 401.804688 C 651.730469 401.804688 647.820312 397.386719 647.820312 392.117188 C 647.820312 387.1875 651.21875 382.597656 657.511719 382.597656 C 658.867188 382.597656 660.226562 382.765625 661.25 383.277344 C 661.585938 382.089844 661.929688 380.898438 662.4375 379.707031 C 660.90625 379.195312 659.207031 378.859375 657.507812 378.859375 C 649.859375 378.859375 643.738281 384.808594 643.738281 392.117188 C 643.738281 399.765625 649.859375 405.542969 657.507812 405.542969 L 658.359375 405.542969 C 658.359375 404.867188 658.191406 404.011719 658.191406 403.335938 C 658.191406 402.828125 658.359375 402.316406 658.359375 401.804688 Z M 667.371094 417.613281 C 673.492188 417.613281 676.890625 422.203125 676.890625 427.132812 C 676.890625 431.554688 674.167969 435.464844 669.921875 436.484375 C 670.601562 437.671875 671.28125 438.691406 671.957031 439.882812 C 677.226562 438.011719 681.140625 433.253906 681.140625 427.132812 C 681.140625 419.824219 674.847656 413.875 667.371094 413.875 C 665.5 413.875 663.632812 414.210938 662.101562 414.894531 C 662.269531 416.082031 662.441406 417.445312 662.78125 418.632812 C 664.140625 417.953125 665.671875 417.613281 667.371094 417.613281 Z M 657.851562 427.132812 C 657.851562 424.585938 658.703125 422.203125 660.398438 420.332031 C 660.058594 418.972656 659.722656 417.613281 659.550781 416.253906 C 655.980469 418.632812 653.601562 422.710938 653.601562 427.132812 C 653.601562 434.785156 659.71875 440.5625 667.367188 440.5625 C 667.878906 440.5625 668.558594 440.5625 669.070312 440.394531 C 668.386719 439.203125 667.539062 438.011719 666.859375 436.824219 C 661.421875 436.484375 657.851562 432.402344 657.851562 427.132812 Z M 775.820312 456.878906 C 762.898438 467.25 746.753906 473.03125 730.09375 473.03125 C 712.921875 473.03125 696.4375 467.078125 683.519531 456.203125 L 681.476562 458.578125 C 694.90625 469.96875 712.246094 476.257812 730.09375 476.257812 C 747.601562 476.257812 764.429688 470.140625 777.859375 459.261719 Z M 734.171875 414.386719 L 734.171875 429.851562 C 734.171875 433.425781 732.984375 436.824219 728.394531 436.824219 C 723.804688 436.824219 722.613281 433.425781 722.613281 429.851562 L 722.613281 414.386719 L 718.367188 414.386719 L 718.367188 430.703125 C 718.367188 436.3125 721.933594 440.5625 728.398438 440.5625 C 734.855469 440.5625 738.425781 436.3125 738.425781 430.703125 L 738.425781 414.386719 Z M 737.574219 366.617188 L 749.128906 366.617188 L 749.128906 370.1875 L 733.320312 370.1875 L 733.320312 344.523438 L 737.574219 344.523438 Z M 595.46875 379.367188 L 610.425781 379.367188 L 610.425781 383.109375 L 599.714844 383.109375 L 599.714844 389.226562 L 610.253906 389.226562 L 610.253906 392.964844 L 599.714844 392.964844 L 599.714844 401.296875 L 610.425781 401.296875 L 610.425781 405.035156 L 595.46875 405.035156 Z M 679.949219 378.007812 L 697.628906 396.195312 L 697.628906 379.367188 L 701.878906 379.367188 L 701.878906 406.058594 L 684.199219 388.207031 L 684.199219 405.035156 L 679.949219 405.035156 Z M 785.335938 379.367188 L 789.585938 379.367188 L 789.585938 405.035156 L 785.335938 405.035156 Z M 636.773438 418.125 L 636.773438 424.242188 L 645.953125 424.242188 L 645.953125 427.8125 L 636.773438 427.8125 L 636.773438 440.050781 L 632.523438 440.050781 L 632.523438 414.386719 L 646.292969 414.386719 L 646.292969 418.125 Z M 653.769531 360.5 L 653.941406 360.5 L 658.019531 344.523438 L 662.101562 344.523438 L 654.960938 371.210938 L 645.953125 352 L 636.941406 371.210938 L 629.632812 344.523438 L 633.882812 344.523438 L 637.960938 360.5 L 645.953125 344.011719 Z M 752.023438 389.058594 L 751.851562 389.058594 L 747.773438 405.035156 L 743.691406 405.035156 L 750.832031 378.347656 L 759.839844 397.726562 L 768.851562 378.347656 L 776.160156 405.035156 L 771.910156 405.035156 L 767.828125 389.058594 L 767.660156 389.058594 L 759.839844 405.71875 Z M 754.230469 424.070312 L 750.152344 440.050781 L 745.898438 440.050781 L 753.039062 413.363281 L 762.21875 432.570312 L 771.226562 413.363281 L 778.367188 440.050781 L 774.121094 440.050781 L 770.039062 424.070312 L 762.21875 440.5625 Z M 694.394531 425.773438 L 696.265625 425.773438 C 699.664062 425.773438 703.746094 425.941406 703.746094 421.863281 C 703.746094 417.785156 699.496094 417.953125 696.097656 417.953125 L 694.394531 417.953125 Z M 697.117188 414.386719 C 699.496094 414.386719 702.214844 414.386719 704.257812 415.574219 C 706.464844 416.765625 707.824219 419.3125 707.824219 421.695312 C 707.824219 425.433594 705.277344 428.496094 701.539062 428.832031 L 709.699219 440.050781 L 704.9375 440.050781 L 697.289062 429.171875 L 694.398438 429.171875 L 694.398438 440.050781 L 690.148438 440.050781 L 690.148438 414.386719 Z M 708.847656 355.910156 L 710.714844 355.910156 C 714.113281 355.910156 718.023438 356.082031 718.023438 352 C 718.023438 347.921875 713.773438 348.089844 710.546875 348.089844 L 708.847656 348.089844 Z M 711.566406 344.523438 C 713.945312 344.523438 716.664062 344.523438 718.707031 345.714844 C 720.917969 346.902344 722.105469 349.453125 722.105469 351.832031 C 722.105469 355.574219 719.722656 358.632812 715.816406 358.972656 L 724.144531 370.191406 L 719.382812 370.191406 L 711.566406 359.3125 L 708.847656 359.3125 L 708.847656 370.191406 L 704.597656 370.191406 L 704.597656 344.523438 Z M 756.609375 344.523438 L 763.582031 344.523438 C 771.738281 344.523438 778.371094 348.433594 778.371094 357.273438 C 778.371094 366.113281 771.910156 370.191406 763.582031 370.191406 L 756.609375 370.191406 Z M 760.859375 366.617188 L 763.238281 366.617188 C 768.851562 366.617188 774.121094 364.578125 774.121094 357.269531 C 774.121094 349.792969 768.851562 348.089844 763.238281 348.089844 L 760.859375 348.089844 Z M 817.632812 400.613281 C 816.273438 401.464844 814.742188 401.804688 812.875 401.804688 C 807.265625 401.804688 803.355469 397.558594 803.355469 392.285156 C 803.355469 387.1875 806.757812 382.597656 812.875 382.597656 C 814.742188 382.597656 816.273438 382.9375 817.632812 383.617188 L 819.675781 380.558594 C 817.804688 379.539062 815.425781 378.859375 812.875 378.859375 C 805.398438 378.859375 799.109375 384.808594 799.109375 392.285156 C 799.109375 399.765625 805.398438 405.542969 812.875 405.542969 C 815.425781 405.542969 817.800781 405.035156 819.84375 403.84375 Z M 636.941406 400.613281 C 635.582031 401.464844 634.054688 401.804688 632.351562 401.804688 C 626.574219 401.804688 622.664062 397.558594 622.664062 392.285156 C 622.664062 387.1875 626.066406 382.597656 632.351562 382.597656 C 634.054688 382.597656 635.582031 382.9375 636.941406 383.617188 L 639.152344 380.558594 C 637.113281 379.539062 634.734375 378.859375 632.351562 378.859375 C 624.703125 378.859375 618.585938 384.808594 618.585938 392.285156 C 618.585938 399.765625 624.703125 405.542969 632.351562 405.542969 C 634.734375 405.542969 637.113281 405.035156 639.152344 403.84375 Z M 636.941406 400.613281 " fill-opacity="1" fill-rule="evenodd"/><path fill="#ffffff" d="M 775.136719 456.203125 C 762.558594 466.570312 746.582031 472.179688 730.09375 472.179688 C 711.222656 472.179688 693.546875 465.039062 680.289062 451.949219 C 667.027344 439.03125 659.71875 421.695312 659.71875 403.335938 C 659.71875 389.226562 663.96875 375.457031 672.296875 363.898438 C 680.457031 352.511719 691.675781 344.011719 704.933594 339.082031 L 704.425781 337.722656 C 690.996094 342.820312 679.4375 351.492188 671.277344 363.050781 C 662.777344 374.949219 658.1875 388.886719 658.1875 403.335938 C 658.1875 422.035156 665.667969 439.710938 679.265625 452.972656 C 692.863281 466.230469 710.882812 473.539062 730.09375 473.539062 C 746.917969 473.539062 763.238281 467.761719 775.988281 457.21875 Z M 775.136719 456.203125 " fill-opacity="1" fill-rule="evenodd"/><path fill="#ffffff" d="M 738.253906 392.285156 C 738.253906 399.765625 731.964844 405.546875 724.484375 405.546875 C 716.835938 405.546875 710.71875 399.765625 710.71875 392.285156 C 710.71875 384.808594 716.835938 378.859375 724.484375 378.859375 C 731.964844 378.859375 738.253906 384.808594 738.253906 392.285156 Z M 734.003906 392.285156 C 734.003906 387.1875 730.605469 382.597656 724.484375 382.597656 C 718.195312 382.597656 714.792969 387.1875 714.792969 392.285156 C 714.792969 397.558594 718.707031 401.804688 724.484375 401.804688 C 730.09375 401.804688 734.003906 397.558594 734.003906 392.285156 Z M 734.003906 392.285156 " fill-opacity="1" fill-rule="evenodd"/></svg>